:SAMPLES-PER-SECOND 30
:FULLY-SPECIFIED
:DEGREES
425
root  88.7161 37.5317 9.54178 178.995 -0.973877 175.36
RightUpLeg  12.3155 -37.5043 -16.0778
RightLeg  6.25972 -5.5461 3.16858
RightFoot  -30.4799 11.4944 66.6787
RightToes  -4.65663e-010 0 -3.6325e-017
Spine  5.26304 1.12355 6.25441
Spine1  3.2166 2.55032 -8.73915
HEad  -14.1787 21.2787 -21.0478
LeftShoulder1  -0.87873 5.63786 -35.0016
LeftArm  10.8821 12.7548 -39.0567
LeftForeArm  25.2659 -30.9897 -5.36455
LeftHand  -0.035905 4.28343 0.728858
RightShoulder  -0.870186 -5.95516 28.922
RightArm  19.8564 -4.10249 41.3769
RightForeArm  9.60268 14.1478 6.5416
RightHand  -0.133902 3.93248 -1.93575
LeftUpLeg  -12.7936 -3.80749 -15.0755
LeftLeg  32.1887 51.3104 31.8861
LeftFoot  -4.87514 0.143215 -0.381736
LeftToes  8.74931e-010 -1.05764e-010 1.2659e-011
426
root  89.4166 37.7225 9.13945 179.627 -7.75772 174.801
RightUpLeg  7.61368 -48.3836 -16.6682
RightLeg  -4.59556 -34.3549 9.51976
RightFoot  -20.7236 9.76637 57.7279
RightToes  -4.65663e-010 0 -3.6325e-017
Spine  2.93704 1.52684 -0.929089
Spine1  4.16174 1.54418 -2.63946
HEad  -12.9986 18.0376 -19.6208
LeftShoulder1  -0.842339 5.56723 -34.409
LeftArm  10.7087 11.4907 -39.0692
LeftForeArm  20.4187 -27.9594 -4.9067
LeftHand  -0.0137963 5.79239 3.11518
RightShoulder  -0.932277 -6.07817 29.546
RightArm  19.4827 -4.0051 42.7542
RightForeArm  10.3681 14.4426 6.3568
RightHand  -0.145505 3.66911 -2.1185
LeftUpLeg  -11.3877 8.17856 -9.7824
LeftLeg  22.3313 37.1768 8.66597
LeftFoot  -10.7831 -0.0294658 7.73544
LeftToes  8.74931e-010 -1.05764e-010 1.2659e-011
427
root  89.5413 38.6964 8.63047 178.029 -13.0224 177.73
RightUpLeg  -6.23027 -45.0392 -11.7765
RightLeg  163.21 -48.6872 -171.202
RightFoot  22.3868 1.12506 -12.7308
RightToes  -4.65663e-010 0 -3.6325e-017
Spine  3.07052 1.31072 5.43195
Spine1  4.29283 2.50427 -4.07738
HEad  -10.4282 14.8795 -15.8692
LeftShoulder1  -0.532071 4.88621 -32.3553
LeftArm  8.51722 9.87636 -40.0867
LeftForeArm  18.8835 -23.9405 -4.26817
LeftHand  0.0611435 8.79788 2.31739
RightShoulder  -1.09941 -6.4172 31.1519
RightArm  19.5011 -3.66545 43.455
RightForeArm  9.04428 14.9409 6.19707
RightHand  -0.181036 3.70017 -2.57921
LeftUpLeg  -4.26736 8.16686 -6.83301
LeftLeg  9.88064 32.4058 1.61741
LeftFoot  -6.10576 -0.367684 8.9505
LeftToes  8.74931e-010 -1.05764e-010 1.2659e-011
428
root  89.7935 38.5593 8.28171 177.086 -17.7848 177.74
RightUpLeg  -0.860318 -45.4951 -12.6466
RightLeg  43.9446 2.07423 -9.96252
RightFoot  12.4383 17.3306 -71.4936
RightToes  -4.65663e-010 0 -3.6325e-017
Spine  4.38555 1.23486 4.83542
Spine1  3.69068 2.61729 -5.18374
HEad  -8.64801 12.8478 -14.0714
LeftShoulder1  -0.795596 5.49048 -33.9061
LeftArm  5.85005 7.62533 -38.2584
LeftForeArm  15.546 -19.7407 -5.01088
LeftHand  -0.123783 6.56062 8.04579
RightShoulder  -0.867242 -5.9025 29.5895
RightArm  18.7461 -4.64289 45.9037
RightForeArm  8.91779 16.1564 5.62239
RightHand  -0.0612642 4.46004 -1.00533
LeftUpLeg  -3.96573 10.179 -6.46455
LeftLeg  12.6759 25.5051 2.51505
LeftFoot  -7.45466 -0.238472 8.36016
LeftToes  8.74931e-010 -1.05764e-010 1.2659e-011
429
root  90.0817 38.4438 7.96674 178.103 -22.4755 176.819
RightUpLeg  -5.96761 -38.7969 -11.3469
RightLeg  45.1467 -4.20745 -4.72203
RightFoot  14.9289 14.9357 -58.0043
RightToes  -4.65663e-010 0 -3.6325e-017
Spine  3.44976 1.77151 2.44077
Spine1  4.3585 2.99472 -4.8574
HEad  -7.45636 9.74637 -12.6431
LeftShoulder1  -0.82604 5.54335 -34.3188
LeftArm  1.12101 5.48563 -37.8533
LeftForeArm  12.4378 -15.9126 -6.73636
LeftHand  0.166167 5.65196 30.0597
RightShoulder  -0.960345 -6.17082 29.4339
RightArm  21.8897 -4.36457 46.7153
RightForeArm  7.23035 18.7941 5.14196
RightHand  -0.0957998 4.88058 -1.3814
LeftUpLeg  -4.82532 10.909 -7.06435
LeftLeg  13.5369 20.6416 1.96027
LeftFoot  -7.70555 -0.24388 9.12076
LeftToes  8.74931e-010 -1.05764e-010 1.2659e-011
